PathFileType	4	(X/Y/Z)	/Users/itak/Documents/Research/Walk-IL/dataset/trc/00116_00007.trc
DataRate	CameraRate	NumFrames	NumMarkers	Units	OrigDataRate	OrigDataStartFrame	OrigNumFrames
100.000000	100.000000	4	53	mm	100.000000	0	538
Frame#	Time	RPSI			LPSI			L3			STRN			T10			C7			CLAV			RBAK			LBAK			LSHO			LUPA			LAEL			LAOL			LWTS			LWPS			LFRA			LIFD			LHPS			LHTS			RSHO			RUPA			RAEL			RAOL			RWTS			RWPS			RFRA			RIFD			RHTS			RHPS			RBHD			LFHD			RFHD			LBHD			LHIP			RHIP			RASI			LASI			LKNE			LTHI			LANK			LTIP			LTOE			LMT1			LMT5			LHEE			RKNE			RTHI			RANK			RTIP			RTOE			RMT1			RMT5			RHEE			
		X1	Y1	Z1	X2	Y2	Z2	X3	Y3	Z3	X4	Y4	Z4	X5	Y5	Z5	X6	Y6	Z6	X7	Y7	Z7	X8	Y8	Z8	X9	Y9	Z9	X10	Y10	Z10	X11	Y11	Z11	X12	Y12	Z12	X13	Y13	Z13	X14	Y14	Z14	X15	Y15	Z15	X16	Y16	Z16	X17	Y17	Z17	X18	Y18	Z18	X19	Y19	Z19	X20	Y20	Z20	X21	Y21	Z21	X22	Y22	Z22	X23	Y23	Z23	X24	Y24	Z24	X25	Y25	Z25	X26	Y26	Z26	X27	Y27	Z27	X28	Y28	Z28	X29	Y29	Z29	X30	Y30	Z30	X31	Y31	Z31	X32	Y32	Z32	X33	Y33	Z33	X34	Y34	Z34	X35	Y35	Z35	X36	Y36	Z36	X37	Y37	Z37	X38	Y38	Z38	X39	Y39	Z39	X40	Y40	Z40	X41	Y41	Z41	X42	Y42	Z42	X43	Y43	Z43	X44	Y44	Z44	X45	Y45	Z45	X46	Y46	Z46	X47	Y47	Z47	X48	Y48	Z48	X49	Y49	Z49	X50	Y50	Z50	X51	Y51	Z51	X52	Y52	Z52	X53	Y53	Z53	

1	0	473.1689758300781	1125.495971679688	-289.376220703125	472.1652221679688	1125.35888671875	-424.2233276367188	465.8487548828125	1157.087890625	-359.3031005859375	673.1515502929688	1362.515380859375	-363.299560546875	421.2772827148438	1304.498413085938	-364.0819702148438	446.6112365722656	1597.320678710938	-382.6145324707031	632.5880737304688	1496.006958007812	-368.6409301757812	398.508544921875	1412.376220703125	-292.8768615722656	440.873779296875	1574.984252929688	-483.3942565917969	529.4827880859375	1562.921264648438	-549.848876953125	513.2264404296875	1428.895385742188	-617.3661499023438	533.4869384765625	1210.765747070312	-634.6761474609375	470.62109375	1196.110717773438	-574.414794921875	647.50439453125	959.517822265625	-596.746337890625	564.3087158203125	928.640869140625	-615.4512939453125	553.740478515625	1095.386596679688	-638.1646118164062	667.7246704101562	765.6895751953125	-570.7250366210938	595.994873046875	854.5325927734375	-617.3184204101562	665.1107177734375	870.1661376953125	-607.4879760742188	498.5447998046875	1582.103271484375	-198.6756134033203	483.3294372558594	1507.922485351562	-134.8362884521484	483.8012084960938	1213.254150390625	-115.3926696777344	485.1222229003906	1211.590209960938	-211.6182708740234	637.123779296875	976.8765258789062	-115.6710815429688	561.4740600585938	957.1383666992188	-90.41768646240234	508.98779296875	1141.232299804688	-98.00099945068359	670.9417724609375	783.5496826171875	-128.8172149658203	671.0034790039062	871.18115234375	-107.5100936889648	602.5595092773438	859.515869140625	-81.68292236328125	477.0254821777344	1766.278198242188	-301.983642578125	629.48193359375	1846.7294921875	-438.7903442382812	630.9371337890625	1853.309692382812	-309.2149658203125	464.8745422363281	1762.951782226562	-436.9630126953125	564.2759399414062	1036.3837890625	-529.3448486328125	598.5385131835938	1032.84375	-171.7185821533203	679.8827514648438	1107.567138671875	-225.8838043212891	672.879150390625	1104.13525390625	-492.0494995117188	578.5577392578125	536.5581665039062	-502.0060729980469	561.3746337890625	680.713134765625	-529.2028198242188	455.267822265625	35.48239517211914	-495.2145385742188	470.7905883789062	291.3973388671875	-528.493896484375	687.2860717773438	36.11410903930664	-437.6494445800781	605.5346069335938	41.67590713500977	-404.5489807128906	580.2980346679688	34.02000045776367	-519.7748413085938	386.4699401855469	38.24163436889648	-433.8941650390625	580.174072265625	540.6323852539062	-195.3393707275391	617.923095703125	823.2922973632812	-176.9699554443359	471.4416198730469	30.31865882873535	-203.7277374267578	550.8552856445312	409.0015563964844	-182.2952117919922	704.8895874023438	41.41022872924805	-257.3190002441406	642.2613525390625	30.00367736816406	-298.1050720214844	605.8571166992188	39.29197692871094	-182.9975738525391	413.5612487792969	32.56282806396484	-252.6795043945312	
2	0.01	473.3169555664062	1125.48046875	-289.3562927246094	472.2501220703125	1125.350463867188	-424.21435546875	465.9481201171875	1157.061401367188	-359.2890014648438	673.2286987304688	1362.483032226562	-363.2491760253906	421.3556518554688	1304.483642578125	-364.0345458984375	446.646728515625	1597.316284179688	-382.5378723144531	632.681396484375	1496.01171875	-368.598876953125	398.5780944824219	1412.37060546875	-292.8222351074219	440.9699096679688	1574.990112304688	-483.3398132324219	529.5498046875	1562.927490234375	-549.7659912109375	513.3342895507812	1428.900634765625	-617.2869873046875	533.6942749023438	1210.709594726562	-634.4807739257812	470.8075866699219	1196.057495117188	-574.2385864257812	647.97705078125	959.6288452148438	-596.347412109375	564.8493041992188	928.6641845703125	-615.0951538085938	554.0966186523438	1095.3759765625	-637.875732421875	668.3866577148438	765.83837890625	-570.1766357421875	596.59765625	854.599609375	-616.880615234375	665.6959228515625	870.38427734375	-607.0113525390625	498.66259765625	1582.067138671875	-198.5903015136719	483.4232788085938	1507.883178710938	-134.7750396728516	484.0590209960938	1213.199462890625	-115.3106460571289	485.3128356933594	1211.521850585938	-211.5255432128906	637.5501708984375	976.9695434570312	-115.6922607421875	562.04638671875	957.1593627929688	-90.34787750244141	509.3142700195312	1141.192016601562	-97.93896484375	671.6115112304688	783.6799926757812	-128.8350524902344	671.45654296875	871.0372924804688	-107.3580780029297	603.1946411132812	859.5697021484375	-81.66552734375	477.118896484375	1766.234619140625	-301.8756103515625	629.6385498046875	1846.748046875	-438.591552734375	631.0657348632812	1853.254760742188	-309.0099792480469	465.0677185058594	1762.996459960938	-436.8471374511719	564.4484252929688	1036.390747070312	-529.3311767578125	598.653564453125	1032.824951171875	-171.7180480957031	680.0248413085938	1107.554443359375	-225.8825073242188	672.9529418945312	1104.136596679688	-492.0504455566406	578.5780639648438	536.5479125976562	-502.0128479003906	561.2491455078125	680.7741088867188	-529.21533203125	455.2688293457031	35.48487091064453	-495.2071533203125	470.8079528808594	291.39599609375	-528.4918212890625	687.2874755859375	36.11629867553711	-437.6478881835938	605.5426635742188	41.67961502075195	-404.5446472167969	580.2998657226562	34.01936340332031	-519.7761840820312	386.4698791503906	38.25053787231445	-433.8972778320312	580.2157592773438	540.6142578125	-195.3512420654297	617.9681396484375	823.2449340820312	-176.9621734619141	471.4344482421875	30.31571578979492	-203.7291259765625	550.8829345703125	408.9878234863281	-182.2917175292969	704.8895874023438	41.40889358520508	-257.3181762695312	642.264892578125	30.00200843811035	-298.1036071777344	605.8567504882812	39.29125595092773	-182.997314453125	413.5635986328125	32.559326171875	-252.6745147705078	
3	0.02	473.4996337890625	1125.457275390625	-289.3280639648438	472.3556823730469	1125.3427734375	-424.2023315429688	466.0715942382812	1157.031372070312	-359.2693786621094	673.3193359375	1362.447509765625	-363.1834106445312	421.4508056640625	1304.465698242188	-363.9770812988281	446.6933898925781	1597.309448242188	-382.4384765625	632.7936401367188	1496.017456054688	-368.5419006347656	398.6690673828125	1412.36181640625	-292.752685546875	441.084228515625	1574.994262695312	-483.2737426757812	529.6349487304688	1562.934936523438	-549.6646118164062	513.4671020507812	1428.906127929688	-617.1919555664062	533.9663696289062	1210.648559570312	-634.2396850585938	471.0495910644531	1195.994262695312	-574.0164184570312	648.56298828125	959.7708740234375	-595.8436279296875	565.5180053710938	928.690185546875	-614.6427001953125	554.5383911132812	1095.364135742188	-637.5172119140625	669.2114868164062	766.0294189453125	-569.4915771484375	597.3478393554688	854.677490234375	-616.332275390625	666.4241333007812	870.6294555664062	-606.4131469726562	498.798583984375	1582.022216796875	-198.4833221435547	483.5337219238281	1507.832763671875	-134.6972808837891	484.3662719726562	1213.129760742188	-115.2165145874023	485.5525512695312	1211.431884765625	-211.4170837402344	638.0986328125	977.08935546875	-115.7075042724609	562.751220703125	957.1873779296875	-90.27183532714844	509.7217712402344	1141.141723632812	-97.86252593994141	672.4487915039062	783.8501586914062	-128.8555145263672	672.0527954101562	870.9186401367188	-107.1973571777344	603.9664306640625	859.6383666992188	-81.65274810791016	477.2421264648438	1766.189575195312	-301.7295837402344	629.8350219726562	1846.764892578125	-438.3469848632812	631.2320556640625	1853.184326171875	-308.7613830566406	465.3032836914062	1763.053344726562	-436.7044372558594	564.6373901367188	1036.397216796875	-529.317138671875	598.7954711914062	1032.80126953125	-171.71533203125	680.1953735351562	1107.534057617188	-225.8792572021484	673.0481567382812	1104.14013671875	-492.0518798828125	578.6052856445312	536.5354614257812	-502.0203247070312	561.1143188476562	680.8541259765625	-529.2131958007812	455.2710266113281	35.48669815063477	-495.1983337402344	470.8301696777344	291.3958435058594	-528.4879760742188	687.2893676757812	36.11855697631836	-437.6456298828125	605.5507202148438	41.68204498291016	-404.5379943847656	580.3012084960938	34.01862335205078	-519.7772827148438	386.4697570800781	38.26238250732422	-433.8997497558594	580.2697143554688	540.5919189453125	-195.3667755126953	617.9133911132812	823.1082153320312	-176.8822479248047	471.4270935058594	30.3116397857666	-203.7310180664062	550.9179077148438	408.9717102050781	-182.2885589599609	704.8905029296875	41.4080924987793	-257.3173828125	642.26953125	29.9996337890625	-298.1022338867188	605.856201171875	39.29045104980469	-182.9969787597656	413.5647277832031	32.55573272705078	-252.6697845458984	
4	0.03	473.7073669433594	1125.426513671875	-289.2914123535156	472.4779968261719	1125.337280273438	-424.1872863769531	466.2135314941406	1157.000244140625	-359.2442321777344	673.4170532226562	1362.412353515625	-363.1039428710938	421.5577087402344	1304.445068359375	-363.9125366210938	446.750732421875	1597.299194335938	-382.3185424804688	632.9169921875	1496.02392578125	-368.4698791503906	398.7802429199219	1412.349365234375	-292.6710510253906	441.208740234375	1574.9951171875	-483.1994934082031	529.7347412109375	1562.943603515625	-549.5501708984375	513.6194458007812	1428.911254882812	-617.0863037109375	534.2959594726562	1210.589111328125	-633.9636840820312	471.3401794433594	1195.925659179688	-573.7583618164062	649.2344970703125	959.9386596679688	-595.2542114257812	566.2828369140625	928.7166137695312	-614.1116943359375	555.0453491210938	1095.35205078125	-637.1057739257812	670.1672973632812	766.260498046875	-568.7008056640625	598.2120971679688	854.7608642578125	-615.6972045898438	667.2617797851562	870.8803100585938	-605.7185668945312	498.9407043457031	1581.970336914062	-198.3593597412109	483.6522827148438	1507.772827148438	-134.6060333251953	484.7011108398438	1213.0478515625	-115.1187286376953	485.8302001953125	1211.323364257812	-211.3013916015625	638.7484741210938	977.233154296875	-115.7119750976562	563.5512084960938	957.22216796875	-90.19755554199219	510.1882019042969	1141.083618164062	-97.77671051025391	673.4175415039062	784.0565185546875	-128.8768157958984	672.7771606445312	870.8560791015625	-107.0473251342773	604.833740234375	859.7207641601562	-81.64844512939453	477.3910827636719	1766.149536132812	-301.5477600097656	630.0626831054688	1846.776489257812	-438.0700378417969	631.4301147460938	1853.10107421875	-308.4830322265625	465.5660705566406	1763.120239257812	-436.5414123535156	564.8165893554688	1036.40185546875	-529.30517578125	598.9563598632812	1032.773559570312	-171.7095031738281	680.3817749023438	1107.505249023438	-225.8736877441406	673.1625366210938	1104.146850585938	-492.0540771484375	578.638916015625	536.5214233398438	-502.0273742675781	560.9888916015625	680.9496459960938	-529.189208984375	455.2744445800781	35.48765563964844	-495.1886596679688	470.8553771972656	291.3975524902344	-528.4824829101562	687.2916870117188	36.12080764770508	-437.6432189941406	605.5572509765625	41.68221282958984	-404.5294189453125	580.3019409179688	34.0179328918457	-519.7777099609375	386.4696960449219	38.27613830566406	-433.9009704589844	580.334716796875	540.56640625	-195.3853912353516	617.7091064453125	822.849853515625	-176.6993865966797	471.42041015625	30.30695724487305	-203.7334899902344	550.9591064453125	408.9542236328125	-182.2862701416016	704.8921508789062	41.40751266479492	-257.3165283203125	642.2747802734375	29.99664306640625	-298.1014099121094	605.8555908203125	39.28972244262695	-182.9966125488281	413.5641479492188	32.55244827270508	-252.6660614013672	
